<svg width="26" height="26" viewBox="0 0 26 26" fill="none" xmlns="http://www.w3.org/2000/svg">
<path d="M12.85 9.425C14.45 9.5 14.8625 10.8625 14.8875 11.5H17.125C17.025 9.025 15.2625 7.5125 12.8125 7.5125C10.05 7.5125 8 9.25 8 13.175C8 15.6 9.1625 18.475 12.8 18.475C15.575 18.475 17.0625 16.4125 17.1 14.7875H14.8625C14.825 15.525 14.3 16.5125 12.825 16.5875C11.1875 16.5375 10.5 15.2625 10.5 13.175C10.5 9.5625 12.1 9.45 12.85 9.425ZM13 0.5C6.1 0.5 0.5 6.1 0.5 13C0.5 19.9 6.1 25.5 13 25.5C19.9 25.5 25.5 19.9 25.5 13C25.5 6.1 19.9 0.5 13 0.5ZM13 23C7.4875 23 3 18.5125 3 13C3 7.4875 7.4875 3 13 3C18.5125 3 23 7.4875 23 13C23 18.5125 18.5125 23 13 23Z" fill="#242124"/>
</svg>
